<?xml version="1.0" encoding="utf-8"?>
<!-- Generator: Adobe Illustrator 16.0.4, SVG Export Plug-In . SVG Version: 6.00 Build 0)  -->
<!DOCTYPE svg PUBLIC "-//W3C//DTD SVG 1.1//EN" "http://www.w3.org/Graphics/SVG/1.1/DTD/svg11.dtd">
<svg version="1.1" id="Ebene_2" xmlns="http://www.w3.org/2000/svg" xmlns:xlink="http://www.w3.org/1999/xlink" x="0px" y="0px"
	 width="425.197px" height="425.193px" viewBox="0 0 425.197 425.193" enable-background="new 0 0 425.197 425.193"
	 xml:space="preserve">
<g>
	<path fill="#C4142D" d="M108.129,166.299c3.773-16.507,18.519-28.836,36.163-28.836c7.567,0,14.593,2.275,20.462,6.161
		c8.169-21.619,29.042-36.994,53.516-36.994c1.267,0,2.688,0.11,3.926,0.191l-57.969,100.185h-38.69c-4.959,0-8.98,4.026-8.98,8.989
		c0,4.962,4.021,8.98,8.98,8.98h105.057l26.447,45.422H124.133c-29.42,0-53.267-23.855-53.267-53.282
		C70.866,193.276,86.536,173.088,108.129,166.299z"/>
	<path fill="#9B4E9D" d="M342.588,130.247c12.356,11.574,15.579,30.527,6.694,45.771c-3.811,6.543-9.312,11.465-15.625,14.576
		c14.557,17.948,17.329,43.73,5.005,64.883c-0.637,1.089-1.359,2.111-2.053,3.143l-57.412-100.443l19.455-33.387
		c2.505-4.284,1.053-9.787-3.239-12.291c-4.282-2.495-9.777-1.042-12.282,3.243l-53.555,91.93l-52.55-0.024l67.586-115.998
		c14.816-25.418,47.424-34.019,72.845-19.19C338.048,84.462,347.596,108.165,342.588,130.247z"/>
	<path fill="#313C99" d="M335.208,280.014c14.743,25.461,6.06,58.057-19.397,72.805c-20.629,11.949-45.951,8.505-62.651-6.782
		c-16.164,5.009-34.221-1.574-43.064-16.842c-3.795-6.553-5.349-13.775-4.926-20.802c-22.197,3.667-45.302-6.056-57.829-26.117
		h115.938l16.386,28.291c2.479,4.292,7.979,5.762,12.273,3.273c4.289-2.489,5.752-7.985,3.267-12.277l-49.565-85.492l26.203-45.323
		L335.208,280.014z"/>
</g>
</svg>
